# 3ds Max Wavefront OBJ Exporter v0.97b - (c)2007 guruware
# File Created: 26.01.2014 11:44:54

mtllib flowa.mtl

#
# object Group1
#

v  -0.7250 -3.2762 -1.2557
v  -0.7250 0.9320 -1.2557
v  1.4499 0.9320 -0.0000
v  1.4499 -3.2762 -0.0000
v  -0.7250 -3.2762 1.2557
v  -0.7250 0.9320 1.2557
v  -0.4933 5.1402 -0.8545
v  0.9867 5.1402 -0.0000
v  -0.4933 5.1402 0.8545
v  -0.3483 9.3484 -0.6032
v  0.6965 9.3484 -0.0000
v  -0.3483 9.3484 0.6032
v  5.0630 3.6149 27.3700
v  9.2873 1.6801 20.1492
v  3.4655 3.6019 19.6343
v  2.3700 4.6647 31.2880
v  10.6725 -0.5737 11.7378
v  5.3362 2.1704 11.0025
v  7.7840 -2.5731 4.2759
v  3.2651 -3.3908 1.2244
v  0.0000 1.6801 20.1492
v  0.0000 5.5226 34.4894
v  0.0000 -0.5737 11.7378
v  0.0000 -3.7320 -0.0493
v  -3.4655 3.6019 19.6343
v  -2.3700 4.6647 31.2880
v  -5.3362 2.1704 11.0025
v  -3.2651 -3.3908 1.2244
v  -9.2873 1.6801 20.1492
v  -5.0630 3.6149 27.3700
v  -10.6725 -0.5737 11.7378
v  -7.7840 -2.5731 4.2759
v  27.3700 3.6149 -5.0630
v  20.1492 1.6801 -9.2873
v  19.6343 3.6019 -3.4655
v  31.2880 4.6647 -2.3700
v  11.7378 -0.5737 -10.6725
v  11.0025 2.1704 -5.3362
v  4.2759 -2.5731 -7.7840
v  1.2244 -3.3908 -3.2651
v  20.1492 1.6801 -0.0000
v  34.4894 5.5226 -0.0000
v  11.7378 -0.5737 -0.0000
v  -0.0493 -3.7320 -0.0000
v  19.6343 3.6019 3.4655
v  31.2880 4.6647 2.3700
v  11.0025 2.1704 5.3362
v  1.2244 -3.3908 3.2651
v  20.1492 1.6801 9.2873
v  27.3700 3.6149 5.0630
v  11.7378 -0.5737 10.6725
v  4.2759 -2.5731 7.7840
v  18.0329 -2.4540 11.5954
v  16.4066 -3.9390 5.3839
v  12.9675 -2.4640 8.2640
v  18.6977 -1.6482 15.1833
v  12.5933 -5.6689 0.0670
v  9.2981 -3.5627 2.5641
v  6.9759 -7.2035 -2.4151
v  2.8673 -7.8310 -1.6187
v  11.3661 -3.9390 10.4243
v  19.1489 -0.9898 18.2070
v  6.8011 -5.6689 5.8592
v  0.4040 -8.0930 -0.5379
v  9.2059 -2.4640 12.0256
v  16.1252 -1.6482 17.7558
v  3.5059 -3.5627 8.3563
v  -0.6769 -7.8310 1.9254
v  6.3257 -3.9390 15.4647
v  12.5372 -2.4540 17.0910
v  1.0089 -5.6689 11.6514
v  -1.4732 -7.2035 6.0340
v  0.0000 14.7657 -0.0000
v  0.0000 12.5512 -3.6960
v  -2.8897 12.5512 -2.3044
v  -3.6033 12.5512 0.8224
v  -1.6036 12.5512 3.3300
v  1.6036 12.5512 3.3300
v  3.6033 12.5512 0.8224
v  2.8897 12.5512 -2.3044
v  0.0000 7.9640 -4.6692
v  -3.6505 7.9640 -2.9112
v  -4.5521 7.9640 1.0390
v  -2.0259 7.9640 4.2068
v  2.0259 7.9640 4.2068
v  4.5521 7.9640 1.0390
v  3.6505 7.9640 -2.9112
v  0.0000 7.9640 -0.0000
v  12.5372 -2.4540 -17.0910
v  6.3257 -3.9390 -15.4647
v  9.2059 -2.4640 -12.0256
v  16.1252 -1.6482 -17.7558
v  1.0089 -5.6689 -11.6514
v  3.5059 -3.5627 -8.3563
v  -1.4732 -7.2035 -6.0340
v  -0.6769 -7.8310 -1.9254
v  11.3662 -3.9390 -10.4243
v  19.1489 -0.9898 -18.2070
v  6.8011 -5.6689 -5.8592
v  0.4040 -8.0930 0.5379
v  12.9675 -2.4640 -8.2640
v  18.6977 -1.6482 -15.1833
v  9.2981 -3.5627 -2.5641
v  2.8673 -7.8310 1.6187
v  16.4066 -3.9390 -5.3839
v  18.0329 -2.4540 -11.5954
v  12.5933 -5.6689 -0.0670
v  6.9759 -7.2035 2.4151
v  -5.0630 3.6149 -27.3700
v  -9.2873 1.6801 -20.1492
v  -3.4655 3.6019 -19.6343
v  -2.3700 4.6647 -31.2880
v  -10.6725 -0.5737 -11.7378
v  -5.3362 2.1704 -11.0025
v  -7.7840 -2.5731 -4.2759
v  -3.2651 -3.3908 -1.2244
v  0.0000 1.6801 -20.1492
v  0.0000 5.5226 -34.4894
v  0.0000 -0.5737 -11.7378
v  0.0000 -3.7320 0.0493
v  3.4655 3.6019 -19.6343
v  2.3700 4.6647 -31.2880
v  5.3362 2.1704 -11.0025
v  3.2651 -3.3908 -1.2244
v  9.2873 1.6801 -20.1492
v  5.0630 3.6149 -27.3700
v  10.6725 -0.5737 -11.7378
v  7.7840 -2.5731 -4.2759
v  -15.6848 -2.4540 -11.4715
v  -13.5233 -3.9390 -5.4254
v  -10.3484 -2.4640 -8.5944
v  -16.6598 -1.6482 -14.9878
v  -9.2612 -5.6689 -0.4611
v  -6.1962 -3.5627 -3.2359
v  -3.4489 -7.2035 1.5219
v  0.5747 -7.8310 0.3706
v  -8.9414 -3.9390 -10.8859
v  -17.3728 -0.9898 -17.9608
v  -3.9959 -5.6689 -6.7361
v  2.9345 -8.0930 -0.9209
v  -6.9289 -2.4640 -12.6694
v  -14.3213 -1.6482 -17.7748
v  -0.9308 -3.5627 -9.5108
v  3.7965 -7.8310 -3.4690
v  -4.3595 -3.9390 -16.3465
v  -10.6891 -2.4540 -17.4252
v  1.2695 -5.6689 -13.0111
v  4.2318 -7.2035 -7.6314
v  -27.3700 3.6149 5.0630
v  -20.1492 1.6801 9.2873
v  -19.6343 3.6019 3.4655
v  -31.2880 4.6647 2.3700
v  -11.7378 -0.5737 10.6725
v  -11.0025 2.1704 5.3362
v  -4.2759 -2.5731 7.7840
v  -1.2244 -3.3908 3.2651
v  -20.1492 1.6801 -0.0000
v  -34.4894 5.5226 -0.0000
v  -11.7378 -0.5737 -0.0000
v  0.0493 -3.7320 -0.0000
v  -19.6343 3.6019 -3.4655
v  -31.2880 4.6647 -2.3700
v  -11.0025 2.1704 -5.3362
v  -1.2244 -3.3908 -3.2651
v  -20.1492 1.6801 -9.2873
v  -27.3700 3.6149 -5.0630
v  -11.7378 -0.5737 -10.6725
v  -4.2759 -2.5731 -7.7840
v  -10.5296 -2.4540 16.6267
v  -4.4835 -3.9390 14.4652
v  -7.6525 -2.4640 11.2902
v  -14.0460 -1.6482 17.6018
v  0.4807 -5.6689 10.2030
v  -2.2940 -3.5627 7.1381
v  2.4638 -7.2035 4.3908
v  1.3124 -7.8310 0.3671
v  -9.9441 -3.9390 9.8833
v  -17.0189 -0.9898 18.3147
v  -5.7942 -5.6689 4.9378
v  0.0210 -8.0930 -1.9926
v  -11.7275 -2.4640 7.8708
v  -16.8329 -1.6482 15.2632
v  -8.5690 -3.5627 1.8727
v  -2.5271 -7.8310 -2.8546
v  -15.4046 -3.9390 5.3013
v  -16.4833 -2.4540 11.6310
v  -12.0693 -5.6689 -0.3276
v  -6.6895 -7.2035 -3.2899
# 188 vertices

vn -0.4160 -0.5547 -0.7206
vn -0.4993 0.0532 -0.8648
vn 0.9986 0.0532 -0.0000
vn 0.8320 -0.5547 -0.0000
vn -0.4160 -0.5547 0.7206
vn -0.4993 0.0532 0.8648
vn -0.4980 0.0901 -0.8625
vn 0.9959 0.0901 0.0000
vn -0.4980 0.0901 0.8625
vn -0.4074 0.5798 -0.7056
vn 0.8148 0.5798 0.0000
vn -0.4074 0.5798 0.7056
vn 0.2932 0.9540 -0.0622
vn 0.3540 0.9303 -0.0955
vn -0.1106 0.9833 -0.1448
vn -0.0069 0.9761 -0.2173
vn 0.4695 0.8411 -0.2684
vn 0.0200 0.9466 -0.3219
vn 0.2751 0.8300 -0.4852
vn -0.0313 0.9333 -0.3578
vn 0.0000 0.9779 -0.2090
vn 0.0000 0.9659 -0.2588
vn 0.0000 0.9452 -0.3266
vn 0.1106 0.9833 -0.1448
vn 0.0069 0.9761 -0.2173
vn -0.0200 0.9466 -0.3219
vn 0.0313 0.9333 -0.3578
vn -0.3540 0.9303 -0.0955
vn -0.2932 0.9540 -0.0622
vn -0.4695 0.8411 -0.2684
vn -0.2751 0.8300 -0.4852
vn -0.0622 0.9540 -0.2932
vn -0.0955 0.9303 -0.3540
vn -0.1448 0.9833 0.1106
vn -0.2173 0.9761 0.0069
vn -0.2684 0.8411 -0.4695
vn -0.3219 0.9466 -0.0200
vn -0.4852 0.8300 -0.2751
vn -0.3578 0.9333 0.0313
vn -0.2090 0.9779 -0.0000
vn -0.2588 0.9659 -0.0000
vn -0.3266 0.9452 -0.0000
vn -0.1448 0.9833 -0.1106
vn -0.2173 0.9761 -0.0069
vn -0.3219 0.9466 0.0200
vn -0.3578 0.9333 -0.0313
vn -0.0955 0.9303 0.3540
vn -0.0622 0.9540 0.2932
vn -0.2684 0.8411 0.4695
vn -0.4852 0.8300 0.2751
vn 0.1634 0.9540 -0.2513
vn 0.1828 0.9303 -0.3179
vn -0.1806 0.9833 -0.0242
vn -0.1585 0.9761 -0.1487
vn 0.1422 0.8411 -0.5218
vn -0.2135 0.9466 -0.2417
vn -0.1485 0.8300 -0.5376
vn -0.2751 0.9333 -0.2309
vn -0.1478 0.9779 -0.1478
vn -0.1830 0.9659 -0.1830
vn -0.2309 0.9452 -0.2309
vn -0.0242 0.9833 -0.1806
vn -0.1487 0.9761 -0.1585
vn -0.2417 0.9466 -0.2135
vn -0.2309 0.9333 -0.2751
vn -0.3179 0.9303 0.1828
vn -0.2513 0.9540 0.1634
vn -0.5218 0.8411 0.1423
vn -0.5376 0.8300 -0.1485
vn 0.0000 1.0000 0.0000
vn 0.0000 0.5337 -0.8457
vn -0.6612 0.5337 -0.5272
vn -0.8244 0.5337 0.1882
vn -0.3669 0.5337 0.7619
vn 0.3669 0.5337 0.7619
vn 0.8244 0.5337 0.1882
vn 0.6612 0.5337 -0.5272
vn 0.0000 -0.5415 -0.8407
vn -0.6573 -0.5415 -0.5242
vn -0.8196 -0.5415 0.1871
vn -0.3648 -0.5415 0.7574
vn 0.3648 -0.5415 0.7574
vn 0.8196 -0.5415 0.1871
vn 0.6573 -0.5415 -0.5242
vn 0.0000 -1.0000 -0.0000
vn -0.2513 0.9540 -0.1634
vn -0.3179 0.9303 -0.1828
vn -0.0242 0.9833 0.1806
vn -0.1487 0.9761 0.1585
vn -0.5218 0.8411 -0.1423
vn -0.2417 0.9466 0.2135
vn -0.5376 0.8300 0.1485
vn -0.2309 0.9333 0.2751
vn -0.1478 0.9779 0.1478
vn -0.1830 0.9659 0.1830
vn -0.2309 0.9452 0.2309
vn -0.1806 0.9833 0.0242
vn -0.1585 0.9761 0.1487
vn -0.2135 0.9466 0.2417
vn -0.2751 0.9333 0.2309
vn 0.1828 0.9303 0.3179
vn 0.1634 0.9540 0.2513
vn 0.1422 0.8411 0.5218
vn -0.1485 0.8300 0.5376
vn -0.2932 0.9540 0.0622
vn -0.3540 0.9303 0.0955
vn 0.1106 0.9833 0.1448
vn 0.0069 0.9761 0.2173
vn -0.4695 0.8411 0.2684
vn -0.0200 0.9466 0.3219
vn -0.2751 0.8300 0.4852
vn 0.0313 0.9333 0.3578
vn -0.0000 0.9779 0.2090
vn 0.0000 0.9659 0.2588
vn -0.0000 0.9452 0.3266
vn -0.1106 0.9833 0.1448
vn -0.0069 0.9761 0.2173
vn 0.0200 0.9466 0.3219
vn -0.0313 0.9333 0.3578
vn 0.3540 0.9303 0.0955
vn 0.2932 0.9540 0.0622
vn 0.4695 0.8411 0.2684
vn 0.2751 0.8300 0.4852
vn -0.1409 0.9540 0.2646
vn -0.1544 0.9303 0.3326
vn 0.1821 0.9833 0.0084
vn 0.1709 0.9761 0.1343
vn -0.0962 0.8411 0.5322
vn 0.2337 0.9466 0.2222
vn 0.1948 0.8300 0.5226
vn 0.2942 0.9333 0.2060
vn 0.1601 0.9779 0.1343
vn 0.1983 0.9659 0.1664
vn 0.2502 0.9452 0.2099
vn 0.0399 0.9833 0.1778
vn 0.1620 0.9761 0.1450
vn 0.2594 0.9466 0.1916
vn 0.2540 0.9333 0.2539
vn 0.3008 0.9303 -0.2098
vn 0.2361 0.9540 -0.1847
vn 0.5074 0.8411 -0.1872
vn 0.5485 0.8300 0.1011
vn 0.0622 0.9540 0.2932
vn 0.0955 0.9303 0.3540
vn 0.1448 0.9833 -0.1106
vn 0.2173 0.9761 -0.0069
vn 0.2684 0.8411 0.4695
vn 0.3219 0.9466 0.0200
vn 0.4852 0.8300 0.2751
vn 0.3578 0.9333 -0.0313
vn 0.2090 0.9779 0.0000
vn 0.2588 0.9659 -0.0000
vn 0.3266 0.9452 0.0000
vn 0.1448 0.9833 0.1106
vn 0.2173 0.9761 0.0069
vn 0.3219 0.9466 -0.0200
vn 0.3578 0.9333 0.0313
vn 0.0955 0.9303 -0.3540
vn 0.0622 0.9540 -0.2932
vn 0.2684 0.8411 -0.4695
vn 0.4852 0.8300 -0.2751
vn 0.2646 0.9540 0.1409
vn 0.3326 0.9303 0.1544
vn 0.0084 0.9833 -0.1821
vn 0.1343 0.9761 -0.1709
vn 0.5322 0.8411 0.0962
vn 0.2222 0.9466 -0.2337
vn 0.5227 0.8300 -0.1948
vn 0.2060 0.9333 -0.2942
vn 0.1343 0.9779 -0.1601
vn 0.1664 0.9659 -0.1983
vn 0.2099 0.9452 -0.2502
vn 0.1778 0.9833 -0.0398
vn 0.1450 0.9761 -0.1620
vn 0.1916 0.9466 -0.2594
vn 0.2539 0.9333 -0.2540
vn -0.2098 0.9303 -0.3008
vn -0.1847 0.9540 -0.2361
vn -0.1872 0.8411 -0.5074
vn 0.1011 0.8300 -0.5485
# 180 vertex normals

vt 0.1765 0.3588 0.0000
vt 0.1179 0.3510 0.0000
vt 0.1168 0.3830 0.0000
vt 0.1739 0.3921 0.0000
vt 0.1610 0.4142 0.0000
vt 0.1136 0.4156 0.0000
vt 0.1137 0.4476 0.0000
vt 0.1725 0.4399 0.0000
vt 0.0587 0.3634 0.0000
vt 0.0619 0.3861 0.0000
vt 0.0609 0.4097 0.0000
vt 0.0571 0.4319 0.0000
vt 0.0040 0.3767 0.0000
vt 0.0095 0.3897 0.0000
vt 0.0050 0.4022 0.0000
vt 0.0019 0.4178 0.0000
vt 0.8830 0.0355 0.0000
vt 0.7717 0.0758 0.0000
vt 0.8356 0.1275 0.0000
vt 0.9454 0.0194 0.0000
vt 0.6826 0.1616 0.0000
vt 0.7486 0.2034 0.0000
vt 0.6593 0.2711 0.0000
vt 0.6867 0.3399 0.0000
vt 0.8784 0.1586 0.0000
vt 0.9963 0.0046 0.0000
vt 0.8103 0.2504 0.0000
vt 0.7133 0.3782 0.0000
vt 0.9207 0.1908 0.0000
vt 0.9980 0.0577 0.0000
vt 0.8726 0.2958 0.0000
vt 0.7585 0.3908 0.0000
vt 0.9869 0.2374 0.0000
vt 0.9979 0.1219 0.0000
vt 0.9341 0.3444 0.0000
vt 0.8326 0.3990 0.0000
vt 0.2815 0.1170 0.0000
vt 0.3218 0.2283 0.0000
vt 0.3735 0.1644 0.0000
vt 0.2655 0.0546 0.0000
vt 0.4076 0.3174 0.0000
vt 0.4494 0.2513 0.0000
vt 0.5171 0.3406 0.0000
vt 0.5859 0.3133 0.0000
vt 0.4046 0.1216 0.0000
vt 0.2506 0.0037 0.0000
vt 0.4964 0.1896 0.0000
vt 0.6242 0.2867 0.0000
vt 0.4368 0.0793 0.0000
vt 0.3037 0.0019 0.0000
vt 0.5418 0.1274 0.0000
vt 0.6368 0.2414 0.0000
vt 0.4834 0.0131 0.0000
vt 0.3679 0.0021 0.0000
vt 0.5904 0.0659 0.0000
vt 0.6450 0.1674 0.0000
vt 0.4763 0.9497 0.0000
vt 0.5586 0.9883 0.0000
vt 0.5519 0.9255 0.0000
vt 0.4337 0.9246 0.0000
vt 0.6535 0.9901 0.0000
vt 0.6403 0.9315 0.0000
vt 0.7255 0.9433 0.0000
vt 0.7480 0.8911 0.0000
vt 0.5456 0.8854 0.0000
vt 0.3980 0.9050 0.0000
vt 0.6323 0.8726 0.0000
vt 0.7544 0.8559 0.0000
vt 0.5401 0.8450 0.0000
vt 0.4259 0.8753 0.0000
vt 0.6232 0.8141 0.0000
vt 0.7366 0.8245 0.0000
vt 0.5295 0.7838 0.0000
vt 0.4608 0.8405 0.0000
vt 0.6162 0.7544 0.0000
vt 0.7009 0.7799 0.0000
vt 0.8240 0.8597 0.0000
vt 0.8113 0.8738 0.0000
vt 0.8186 0.8820 0.0000
vt 0.8306 0.8835 0.0000
vt 0.8418 0.8666 0.0000
vt 0.8258 0.8366 0.0000
vt 0.8028 0.8336 0.0000
vt 0.8051 0.8546 0.0000
vt 0.8016 0.8858 0.0000
vt 0.8112 0.8963 0.0000
vt 0.8135 0.8957 0.0000
vt 0.8493 0.8859 0.0000
vt 0.8363 0.8250 0.0000
vt 0.7763 0.8090 0.0000
vt 0.7933 0.8505 0.0000
vt 0.8016 0.9133 0.0000
vt 0.8632 0.7972 0.0000
vt 0.1019 0.2871 0.0000
vt 0.1874 0.2562 0.0000
vt 0.1383 0.2165 0.0000
vt 0.0540 0.2994 0.0000
vt 0.2558 0.1903 0.0000
vt 0.2051 0.1582 0.0000
vt 0.2736 0.1063 0.0000
vt 0.2526 0.0534 0.0000
vt 0.1054 0.1926 0.0000
vt 0.0149 0.3108 0.0000
vt 0.1577 0.1222 0.0000
vt 0.2322 0.0241 0.0000
vt 0.0730 0.1679 0.0000
vt 0.0136 0.2700 0.0000
vt 0.1099 0.0873 0.0000
vt 0.1975 0.0144 0.0000
vt 0.0222 0.1321 0.0000
vt 0.0137 0.2208 0.0000
vt 0.0627 0.0500 0.0000
vt 0.1407 0.0081 0.0000
vt 0.8830 0.4360 0.0000
vt 0.7717 0.4763 0.0000
vt 0.8356 0.5280 0.0000
vt 0.9454 0.4199 0.0000
vt 0.6826 0.5621 0.0000
vt 0.7486 0.6039 0.0000
vt 0.6593 0.6716 0.0000
vt 0.6867 0.7404 0.0000
vt 0.8784 0.5591 0.0000
vt 0.9963 0.4051 0.0000
vt 0.8103 0.6509 0.0000
vt 0.7133 0.7787 0.0000
vt 0.9207 0.5913 0.0000
vt 0.9980 0.4582 0.0000
vt 0.8726 0.6963 0.0000
vt 0.7585 0.7913 0.0000
vt 0.9869 0.6379 0.0000
vt 0.9979 0.5224 0.0000
vt 0.9341 0.7449 0.0000
vt 0.8326 0.7995 0.0000
vt 0.2169 0.2675 0.0000
vt 0.1783 0.3498 0.0000
vt 0.2411 0.3432 0.0000
vt 0.2420 0.2249 0.0000
vt 0.1765 0.4447 0.0000
vt 0.2351 0.4316 0.0000
vt 0.2233 0.5168 0.0000
vt 0.2755 0.5393 0.0000
vt 0.2812 0.3368 0.0000
vt 0.2616 0.1892 0.0000
vt 0.2940 0.4235 0.0000
vt 0.3107 0.5456 0.0000
vt 0.3216 0.3313 0.0000
vt 0.2913 0.2171 0.0000
vt 0.3525 0.4144 0.0000
vt 0.3421 0.5279 0.0000
vt 0.3828 0.3207 0.0000
vt 0.3261 0.2521 0.0000
vt 0.4122 0.4074 0.0000
vt 0.3867 0.4921 0.0000
vt 0.3072 0.7247 0.0000
vt 0.4144 0.7749 0.0000
vt 0.4058 0.6932 0.0000
vt 0.2517 0.6919 0.0000
vt 0.5381 0.7772 0.0000
vt 0.5210 0.7010 0.0000
vt 0.6320 0.7162 0.0000
vt 0.6613 0.6483 0.0000
vt 0.3975 0.6409 0.0000
vt 0.2052 0.6664 0.0000
vt 0.5105 0.6241 0.0000
vt 0.6695 0.6024 0.0000
vt 0.3903 0.5882 0.0000
vt 0.2416 0.6276 0.0000
vt 0.4986 0.5480 0.0000
vt 0.6464 0.5615 0.0000
vt 0.3765 0.5085 0.0000
vt 0.2871 0.5824 0.0000
vt 0.4895 0.4702 0.0000
vt 0.5999 0.5034 0.0000
vt 0.3438 0.8516 0.0000
vt 0.3129 0.7662 0.0000
vt 0.2732 0.8152 0.0000
vt 0.3562 0.8995 0.0000
vt 0.2471 0.6978 0.0000
vt 0.2150 0.7485 0.0000
vt 0.1630 0.6800 0.0000
vt 0.1102 0.7010 0.0000
vt 0.2493 0.8481 0.0000
vt 0.3675 0.9386 0.0000
vt 0.1789 0.7959 0.0000
vt 0.0808 0.7214 0.0000
vt 0.2246 0.8806 0.0000
vt 0.3268 0.9399 0.0000
vt 0.1441 0.8436 0.0000
vt 0.0711 0.7561 0.0000
vt 0.1889 0.9314 0.0000
vt 0.2775 0.9398 0.0000
vt 0.1068 0.8909 0.0000
vt 0.0649 0.8129 0.0000
# 193 texture coords

g Group1
usemtl defaultMat
s 1
f 1/1/1 2/2/2 3/3/3 4/4/4 
f 5/5/5 6/6/6 2/7/2 1/8/1 
f 4/4/4 3/3/3 6/6/6 5/5/5 
f 2/2/2 7/9/7 8/10/8 3/3/3 
f 6/6/6 9/11/9 7/12/7 2/7/2 
f 3/3/3 8/10/8 9/11/9 6/6/6 
f 7/9/7 10/13/10 11/14/11 8/10/8 
f 9/11/9 12/15/12 10/16/10 7/12/7 
f 8/10/8 11/14/11 12/15/12 9/11/9 
f 5/5/5 1/8/1 4/4/4 
f 11/14/11 10/13/10 12/15/12 
f 13/17/13 14/18/14 15/19/15 16/20/16 
f 14/18/14 17/21/17 18/22/18 15/19/15 
f 19/23/19 20/24/20 18/22/18 17/21/17 
f 16/20/16 15/19/15 21/25/21 22/26/22 
f 15/19/15 18/22/18 23/27/23 21/25/21 
f 20/24/20 24/28/22 23/27/23 18/22/18 
f 21/25/21 25/29/24 26/30/25 22/26/22 
f 23/27/23 27/31/26 25/29/24 21/25/21 
f 23/27/23 24/28/22 28/32/27 27/31/26 
f 25/29/24 29/33/28 30/34/29 26/30/25 
f 27/31/26 31/35/30 29/33/28 25/29/24 
f 27/31/26 28/32/27 32/36/31 31/35/30 
f 33/37/32 34/38/33 35/39/34 36/40/35 
f 34/38/33 37/41/36 38/42/37 35/39/34 
f 39/43/38 40/44/39 38/42/37 37/41/36 
f 36/40/35 35/39/34 41/45/40 42/46/41 
f 35/39/34 38/42/37 43/47/42 41/45/40 
f 40/44/39 44/48/41 43/47/42 38/42/37 
f 41/45/40 45/49/43 46/50/44 42/46/41 
f 43/47/42 47/51/45 45/49/43 41/45/40 
f 43/47/42 44/48/41 48/52/46 47/51/45 
f 45/49/43 49/53/47 50/54/48 46/50/44 
f 47/51/45 51/55/49 49/53/47 45/49/43 
f 47/51/45 48/52/46 52/56/50 51/55/49 
f 53/57/51 54/58/52 55/59/53 56/60/54 
f 54/58/52 57/61/55 58/62/56 55/59/53 
f 59/63/57 60/64/58 58/62/56 57/61/55 
f 56/60/54 55/59/53 61/65/59 62/66/60 
f 55/59/53 58/62/56 63/67/61 61/65/59 
f 60/64/58 64/68/60 63/67/61 58/62/56 
f 61/65/59 65/69/62 66/70/63 62/66/60 
f 63/67/61 67/71/64 65/69/62 61/65/59 
f 63/67/61 64/68/60 68/72/65 67/71/64 
f 65/69/62 69/73/66 70/74/67 66/70/63 
f 67/71/64 71/75/68 69/73/66 65/69/62 
f 67/71/64 68/72/65 72/76/69 71/75/68 
f 73/77/70 74/78/71 75/79/72 
f 73/77/70 75/79/72 76/80/73 
f 73/77/70 76/80/73 77/81/74 
f 73/77/70 77/81/74 78/82/75 
f 73/77/70 78/82/75 79/83/76 
f 73/77/70 79/83/76 80/84/77 
f 73/77/70 80/84/77 74/78/71 
f 75/79/72 74/78/71 81/85/78 82/86/79 
f 76/80/73 75/79/72 82/86/79 83/87/80 
f 77/81/74 76/80/73 83/87/80 84/88/81 
f 78/82/75 77/81/74 84/88/81 85/89/82 
f 79/83/76 78/82/75 85/89/82 86/90/83 
f 80/84/77 79/83/76 86/90/83 87/91/84 
f 74/78/71 80/84/77 87/91/84 81/85/78 
f 88/92/85 82/86/79 81/85/78 
f 88/92/85 83/87/80 82/86/79 
f 88/92/85 84/88/81 83/87/80 
f 88/93/85 85/89/82 84/88/81 
f 88/93/85 86/90/83 85/89/82 
f 88/92/85 87/91/84 86/90/83 
f 88/92/85 81/85/78 87/91/84 
f 89/94/86 90/95/87 91/96/88 92/97/89 
f 90/95/87 93/98/90 94/99/91 91/96/88 
f 95/100/92 96/101/93 94/99/91 93/98/90 
f 92/97/89 91/96/88 97/102/94 98/103/95 
f 91/96/88 94/99/91 99/104/96 97/102/94 
f 96/101/93 100/105/95 99/104/96 94/99/91 
f 97/102/94 101/106/97 102/107/98 98/103/95 
f 99/104/96 103/108/99 101/106/97 97/102/94 
f 99/104/96 100/105/95 104/109/100 103/108/99 
f 101/106/97 105/110/101 106/111/102 102/107/98 
f 103/108/99 107/112/103 105/110/101 101/106/97 
f 103/108/99 104/109/100 108/113/104 107/112/103 
f 109/114/105 110/115/106 111/116/107 112/117/108 
f 110/115/106 113/118/109 114/119/110 111/116/107 
f 115/120/111 116/121/112 114/119/110 113/118/109 
f 112/117/108 111/116/107 117/122/113 118/123/114 
f 111/116/107 114/119/110 119/124/115 117/122/113 
f 116/121/112 120/125/114 119/124/115 114/119/110 
f 117/122/113 121/126/116 122/127/117 118/123/114 
f 119/124/115 123/128/118 121/126/116 117/122/113 
f 119/124/115 120/125/114 124/129/119 123/128/118 
f 121/126/116 125/130/120 126/131/121 122/127/117 
f 123/128/118 127/132/122 125/130/120 121/126/116 
f 123/128/118 124/129/119 128/133/123 127/132/122 
f 129/134/124 130/135/125 131/136/126 132/137/127 
f 130/135/125 133/138/128 134/139/129 131/136/126 
f 135/140/130 136/141/131 134/139/129 133/138/128 
f 132/137/127 131/136/126 137/142/132 138/143/133 
f 131/136/126 134/139/129 139/144/134 137/142/132 
f 136/141/131 140/145/133 139/144/134 134/139/129 
f 137/142/132 141/146/135 142/147/136 138/143/133 
f 139/144/134 143/148/137 141/146/135 137/142/132 
f 139/144/134 140/145/133 144/149/138 143/148/137 
f 141/146/135 145/150/139 146/151/140 142/147/136 
f 143/148/137 147/152/141 145/150/139 141/146/135 
f 143/148/137 144/149/138 148/153/142 147/152/141 
f 149/154/143 150/155/144 151/156/145 152/157/146 
f 150/155/144 153/158/147 154/159/148 151/156/145 
f 155/160/149 156/161/150 154/159/148 153/158/147 
f 152/157/146 151/156/145 157/162/151 158/163/152 
f 151/156/145 154/159/148 159/164/153 157/162/151 
f 156/161/150 160/165/152 159/164/153 154/159/148 
f 157/162/151 161/166/154 162/167/155 158/163/152 
f 159/164/153 163/168/156 161/166/154 157/162/151 
f 159/164/153 160/165/152 164/169/157 163/168/156 
f 161/166/154 165/170/158 166/171/159 162/167/155 
f 163/168/156 167/172/160 165/170/158 161/166/154 
f 163/168/156 164/169/157 168/173/161 167/172/160 
f 169/174/162 170/175/163 171/176/164 172/177/165 
f 170/175/163 173/178/166 174/179/167 171/176/164 
f 175/180/168 176/181/169 174/179/167 173/178/166 
f 172/177/165 171/176/164 177/182/170 178/183/171 
f 171/176/164 174/179/167 179/184/172 177/182/170 
f 176/181/169 180/185/171 179/184/172 174/179/167 
f 177/182/170 181/186/173 182/187/174 178/183/171 
f 179/184/172 183/188/175 181/186/173 177/182/170 
f 179/184/172 180/185/171 184/189/176 183/188/175 
f 181/186/173 185/190/177 186/191/178 182/187/174 
f 183/188/175 187/192/179 185/190/177 181/186/173 
f 183/188/175 184/189/176 188/193/180 187/192/179 
# 112 polygons - 16 triangles

