# 3ds Max Wavefront OBJ Exporter v0.97b - (c)2007 guruware
# File Created: 25.01.2014 23:05:22

#
# object MurVivarium1
#

v  -2158.9009 2.6292 -1091.2935
v  -2158.9009 2.6292 -1151.2935
v  2150.5894 2.6292 -1151.2935
v  2150.5894 2.6292 -1091.2935
v  -2149.2312 1392.5085 -1100.9630
v  2140.9197 1392.5085 -1100.9630
v  2140.9197 1392.5085 -1141.6239
v  -2149.2312 1392.5085 -1141.6239
v  2150.5894 1374.0601 -1091.2935
v  -2158.9009 1374.0601 -1091.2935
v  2150.5894 1374.0601 -1151.2935
v  -2158.9009 1374.0601 -1151.2935
# 12 vertices

vn 0.0000 -1.0000 -0.0000
vn 0.0000 1.0000 -0.0000
vn 0.0000 0.0000 1.0000
vn 1.0000 0.0000 -0.0000
vn 0.0000 0.0000 -1.0000
vn -1.0000 0.0000 -0.0000
vn 0.0000 0.4642 0.8857
vn 0.8857 0.4642 -0.0000
vn 0.0000 0.4642 -0.8857
vn -0.8857 0.4642 -0.0000
# 10 vertex normals

vt 0.0005 0.0005 0.9995
vt 0.0005 0.0005 0.0005
vt 0.9995 0.0005 0.0005
vt 0.9995 0.0005 0.9995
vt 0.0027 0.9995 0.8385
vt 0.9973 0.9995 0.8385
vt 0.9973 0.9995 0.1615
vt 0.0027 0.9995 0.1615
vt 0.9995 0.9862 0.9995
vt 0.0005 0.9862 0.9995
vt 0.9995 0.9862 0.0005
vt 0.0005 0.9862 0.0005
# 12 texture coords

g MurVivarium1
s 2
f 1/1/1 2/2/1 3/3/1 4/4/1 
s 4
f 5/5/2 6/6/2 7/7/2 8/8/2 
s 8
f 1/1/3 4/4/3 9/9/3 10/10/3 
s 16
f 4/4/4 3/3/4 11/11/4 9/9/4 
s 32
f 3/3/5 2/2/5 12/12/5 11/11/5 
s 64
f 2/2/6 1/1/6 10/10/6 12/12/6 
s off
f 10/10/7 9/9/7 6/6/7 5/5/7 
f 9/9/8 11/11/8 7/7/8 6/6/8 
f 11/11/9 12/12/9 8/8/9 7/7/9 
f 12/12/10 10/10/10 5/5/10 8/8/10 
# 10 polygons

#
# object MurVivarium003
#

v  2150.3584 1.2557 1186.8851
v  2150.3584 1.2557 -1154.1354
v  2214.8633 1.2557 -1154.1354
v  2214.8633 1.2557 1186.8851
v  2162.1685 1381.2556 1173.7819
v  2203.0532 1381.2556 1173.7819
v  2203.0532 1381.2556 -1141.0321
v  2162.1685 1381.2556 -1141.0321
v  2214.8633 1371.2556 1186.8851
v  2150.3584 1371.2556 1186.8851
v  2214.8633 1371.2556 -1154.1354
v  2150.3584 1371.2556 -1154.1354
# 12 vertices

vn 0.0000 -1.0000 -0.0000
vn 0.0000 1.0000 -0.0000
vn 0.0000 0.0000 1.0000
vn 1.0000 0.0000 -0.0000
vn 0.0000 0.0000 -1.0000
vn -1.0000 0.0000 -0.0000
vn 0.0000 0.7632 0.6462
vn 0.6462 0.7632 -0.0000
vn 0.0000 0.7632 -0.6462
vn -0.6462 0.7632 -0.0000
# 10 vertex normals

vt 0.0005 0.0005 0.9995
vt 0.0005 0.9995 0.9995
vt 0.0005 0.9995 0.0005
vt 0.0005 0.0005 0.0005
vt 0.9995 0.0061 0.8166
vt 0.9995 0.0061 0.1834
vt 0.9995 0.9939 0.1834
vt 0.9995 0.9939 0.8166
vt 0.9923 0.0005 0.0005
vt 0.9923 0.0005 0.9995
vt 0.9923 0.9995 0.0005
vt 0.9923 0.9995 0.9995
# 12 texture coords

g MurVivarium003
s 2
f 13/13/11 14/14/11 15/15/11 16/16/11 
s 4
f 17/17/12 18/18/12 19/19/12 20/20/12 
s 8
f 13/13/13 16/16/13 21/21/13 22/22/13 
s 16
f 16/16/14 15/15/14 23/23/14 21/21/14 
s 32
f 15/15/15 14/14/15 24/24/15 23/23/15 
s 64
f 14/14/16 13/13/16 22/22/16 24/24/16 
s off
f 22/22/17 21/21/17 18/18/17 17/17/17 
f 21/21/18 23/23/18 19/19/18 18/18/18 
f 23/23/19 24/24/19 20/20/19 19/19/19 
f 24/24/20 22/22/20 17/17/20 20/20/20 
# 10 polygons

#
# object MurVivarium002
#

v  -2158.9009 0.0000 1188.3540
v  -2158.9009 0.0000 1128.3540
v  2150.5894 0.0000 1128.3540
v  2150.5894 0.0000 1188.3540
v  -2149.2312 1389.8794 1178.6844
v  2140.9197 1389.8794 1178.6844
v  2140.9197 1389.8794 1138.0236
v  -2149.2312 1389.8794 1138.0236
v  2150.5894 1371.4309 1188.3540
v  -2158.9009 1371.4309 1188.3540
v  2150.5894 1371.4309 1128.3540
v  -2158.9009 1371.4309 1128.3540
# 12 vertices

vn 0.0000 -1.0000 -0.0000
vn 0.0000 1.0000 -0.0000
vn 0.0000 0.0000 1.0000
vn 1.0000 0.0000 -0.0000
vn 0.0000 0.0000 -1.0000
vn -1.0000 0.0000 -0.0000
vn 0.0000 0.4642 0.8857
vn 0.8857 0.4642 -0.0000
vn 0.0000 0.4642 -0.8857
vn -0.8857 0.4642 -0.0000
# 10 vertex normals

vt 0.0005 0.0005 0.9995
vt 0.0005 0.0005 0.0005
vt 0.9995 0.0005 0.0005
vt 0.9995 0.0005 0.9995
vt 0.0027 0.9995 0.8385
vt 0.9973 0.9995 0.8385
vt 0.9973 0.9995 0.1615
vt 0.0027 0.9995 0.1615
vt 0.9995 0.9862 0.9995
vt 0.0005 0.9862 0.9995
vt 0.9995 0.9862 0.0005
vt 0.0005 0.9862 0.0005
# 12 texture coords

g MurVivarium002
s 2
f 25/25/21 26/26/21 27/27/21 28/28/21 
s 4
f 29/29/22 30/30/22 31/31/22 32/32/22 
s 8
f 25/25/23 28/28/23 33/33/23 34/34/23 
s 16
f 28/28/24 27/27/24 35/35/24 33/33/24 
s 32
f 27/27/25 26/26/25 36/36/25 35/35/25 
s 64
f 26/26/26 25/25/26 34/34/26 36/36/26 
s off
f 34/34/27 33/33/27 30/30/27 29/29/27 
f 33/33/28 35/35/28 31/31/28 30/30/28 
f 35/35/29 36/36/29 32/32/29 31/31/29 
f 36/36/30 34/34/30 29/29/30 32/32/30 
# 10 polygons

#
# object MurVivarium004
#

v  -2222.5527 1.2557 1186.3633
v  -2222.5527 1.2557 -1153.6135
v  -2158.0474 1.2557 -1153.6135
v  -2158.0474 1.2557 1186.3633
v  -2210.7424 1381.2556 1173.2659
v  -2169.8577 1381.2556 1173.2659
v  -2169.8577 1381.2556 -1140.5161
v  -2210.7424 1381.2556 -1140.5161
v  -2158.0474 1371.2556 1186.3633
v  -2222.5527 1371.2556 1186.3633
v  -2158.0474 1371.2556 -1153.6135
v  -2222.5527 1371.2556 -1153.6135
# 12 vertices

vn 0.0000 -1.0000 -0.0000
vn 0.0000 1.0000 -0.0000
vn 0.0000 0.0000 1.0000
vn 1.0000 0.0000 -0.0000
vn 0.0000 0.0000 -1.0000
vn -1.0000 0.0000 -0.0000
vn 0.0000 0.7632 0.6462
vn 0.6462 0.7632 -0.0000
vn 0.0000 0.7632 -0.6462
vn -0.6462 0.7632 -0.0000
# 10 vertex normals

vt 0.0005 0.0005 0.9995
vt 0.0005 0.9995 0.9995
vt 0.0005 0.9995 0.0005
vt 0.0005 0.0005 0.0005
vt 0.9995 0.0061 0.8166
vt 0.9995 0.0061 0.1834
vt 0.9995 0.9939 0.1834
vt 0.9995 0.9939 0.8166
vt 0.9923 0.0005 0.0005
vt 0.9923 0.0005 0.9995
vt 0.9923 0.9995 0.0005
vt 0.9923 0.9995 0.9995
# 12 texture coords

g MurVivarium004
s 2
f 37/37/31 38/38/31 39/39/31 40/40/31 
s 4
f 41/41/32 42/42/32 43/43/32 44/44/32 
s 8
f 37/37/33 40/40/33 45/45/33 46/46/33 
s 16
f 40/40/34 39/39/34 47/47/34 45/45/34 
s 32
f 39/39/35 38/38/35 48/48/35 47/47/35 
s 64
f 38/38/36 37/37/36 46/46/36 48/48/36 
s off
f 46/46/37 45/45/37 42/42/37 41/41/37 
f 45/45/38 47/47/38 43/43/38 42/42/38 
f 47/47/39 48/48/39 44/44/39 43/43/39 
f 48/48/40 46/46/40 41/41/40 44/44/40 
# 10 polygons

#
# object Vivarium_boite
#

v  2150.5894 0.0000 1129.1055
v  2150.5894 0.0000 -1090.1445
v  -2158.9009 0.0000 -1090.1445
v  -2158.9009 0.0000 1129.1055
# 4 vertices

vn 0.0000 1.0000 -0.0000
# 1 vertex normals

vt 4.3478 0.0016 0.5000
vt 4.3478 3.2784 0.5000
vt 0.0022 3.2784 0.5000
vt 0.0022 0.0016 0.5000
# 4 texture coords

g Vivarium_boite
s 1
f 49/49/41 50/50/41 51/51/41 52/52/41 
# 1 polygons

