# 3ds Max Wavefront OBJ Exporter v0.97b - (c)2007 guruware
# File Created: 25.01.2014 19:44:07

#
# object MurVivarium1
#

v  -2158.9009 0.0000 -1031.0471
v  -2158.9009 0.0000 -1091.0471
v  2150.5894 0.0000 -1091.0471
v  2150.5894 0.0000 -1031.0471
v  -2149.2312 1389.8794 -1040.7167
v  2140.9197 1389.8794 -1040.7167
v  2140.9197 1389.8794 -1081.3776
v  -2149.2312 1389.8794 -1081.3776
v  2150.5894 1371.4309 -1031.0471
v  -2158.9009 1371.4309 -1031.0471
v  2150.5894 1371.4309 -1091.0471
v  -2158.9009 1371.4309 -1091.0471
# 12 vertices

vn 0.0000 -1.0000 -0.0000
vn 0.0000 1.0000 -0.0000
vn 0.0000 0.0000 1.0000
vn 1.0000 0.0000 -0.0000
vn 0.0000 0.0000 -1.0000
vn -1.0000 0.0000 -0.0000
vn 0.0000 0.4642 0.8857
vn 0.8857 0.4642 -0.0000
vn 0.0000 0.4642 -0.8857
vn -0.8857 0.4642 -0.0000
# 10 vertex normals

vt 1.0000 0.0000 0.0000
vt 1.0000 1.0000 0.0000
vt 0.0000 1.0000 0.0000
vt 0.0000 0.0000 0.0000
# 4 texture coords

g MurVivarium1
s 2
f 1/1/1 2/2/1 3/3/1 4/4/1 
s 4
f 5/4/2 6/1/2 7/2/2 8/3/2 
s 8
f 1/4/3 4/1/3 9/2/3 10/3/3 
s 16
f 4/4/4 3/1/4 11/2/4 9/3/4 
s 32
f 3/4/5 2/1/5 12/2/5 11/3/5 
s 64
f 2/4/6 1/1/6 10/2/6 12/3/6 
s off
f 10/3/7 9/2/7 6/1/7 5/4/7 
f 9/3/8 11/2/8 7/2/8 6/1/8 
f 11/3/9 12/2/9 8/3/9 7/2/9 
f 12/3/10 10/2/10 5/4/10 8/3/10 
# 10 polygons

#
# object MurVivarium003
#

v  2086.5229 1.2557 1071.3749
v  2086.5229 1.2557 -1038.6251
v  2151.0283 1.2557 -1038.6251
v  2151.0283 1.2557 1071.3749
v  2098.3333 1381.2556 1059.5647
v  2139.2180 1381.2556 1059.5647
v  2139.2180 1381.2556 -1026.8149
v  2098.3333 1381.2556 -1026.8149
v  2151.0283 1371.2556 1071.3749
v  2086.5229 1371.2556 1071.3749
v  2151.0283 1371.2556 -1038.6251
v  2086.5229 1371.2556 -1038.6251
# 12 vertices

vn 0.0000 -1.0000 -0.0000
vn 0.0000 1.0000 -0.0000
vn 0.0000 0.0000 1.0000
vn 1.0000 0.0000 -0.0000
vn 0.0000 0.0000 -1.0000
vn -1.0000 0.0000 -0.0000
vn 0.0000 0.7632 0.6462
vn 0.6462 0.7632 -0.0000
vn 0.0000 0.7632 -0.6462
vn -0.6462 0.7632 -0.0000
# 10 vertex normals

vt 1.0000 0.0000 0.0000
vt 1.0000 1.0000 0.0000
vt 0.0000 1.0000 0.0000
vt 0.0000 0.0000 0.0000
# 4 texture coords

g MurVivarium003
s 2
f 13/5/11 14/6/11 15/7/11 16/8/11 
s 4
f 17/8/12 18/5/12 19/6/12 20/7/12 
s 8
f 13/8/13 16/5/13 21/6/13 22/7/13 
s 16
f 16/8/14 15/5/14 23/6/14 21/7/14 
s 32
f 15/8/15 14/5/15 24/6/15 23/7/15 
s 64
f 14/8/16 13/5/16 22/6/16 24/7/16 
s off
f 22/7/17 21/6/17 18/5/17 17/8/17 
f 21/7/18 23/6/18 19/6/18 18/5/18 
f 23/7/19 24/6/19 20/7/19 19/6/19 
f 24/7/20 22/6/20 17/8/20 20/7/20 
# 10 polygons

#
# object MurVivarium002
#

v  -2158.9009 0.0000 1131.7957
v  -2158.9009 0.0000 1071.7957
v  2150.5894 0.0000 1071.7957
v  2150.5894 0.0000 1131.7957
v  -2149.2312 1389.8794 1122.1261
v  2140.9197 1389.8794 1122.1261
v  2140.9197 1389.8794 1081.4652
v  -2149.2312 1389.8794 1081.4652
v  2150.5894 1371.4309 1131.7957
v  -2158.9009 1371.4309 1131.7957
v  2150.5894 1371.4309 1071.7957
v  -2158.9009 1371.4309 1071.7957
# 12 vertices

vn 0.0000 -1.0000 -0.0000
vn 0.0000 1.0000 -0.0000
vn 0.0000 0.0000 1.0000
vn 1.0000 0.0000 -0.0000
vn 0.0000 0.0000 -1.0000
vn -1.0000 0.0000 -0.0000
vn 0.0000 0.4642 0.8857
vn 0.8857 0.4642 -0.0000
vn 0.0000 0.4642 -0.8857
vn -0.8857 0.4642 -0.0000
# 10 vertex normals

vt 1.0000 0.0000 0.0000
vt 1.0000 1.0000 0.0000
vt 0.0000 1.0000 0.0000
vt 0.0000 0.0000 0.0000
# 4 texture coords

g MurVivarium002
s 2
f 25/9/21 26/10/21 27/11/21 28/12/21 
s 4
f 29/12/22 30/9/22 31/10/22 32/11/22 
s 8
f 25/12/23 28/9/23 33/10/23 34/11/23 
s 16
f 28/12/24 27/9/24 35/10/24 33/11/24 
s 32
f 27/12/25 26/9/25 36/10/25 35/11/25 
s 64
f 26/12/26 25/9/26 34/10/26 36/11/26 
s off
f 34/11/27 33/10/27 30/9/27 29/12/27 
f 33/11/28 35/10/28 31/10/28 30/9/28 
f 35/11/29 36/10/29 32/11/29 31/10/29 
f 36/11/30 34/10/30 29/12/30 32/11/30 
# 10 polygons

#
# object MurVivarium004
#

v  -2158.9009 1.2557 1071.3749
v  -2158.9009 1.2557 -1038.6251
v  -2094.3960 1.2557 -1038.6251
v  -2094.3960 1.2557 1071.3749
v  -2147.0908 1381.2556 1059.5647
v  -2106.2061 1381.2556 1059.5647
v  -2106.2061 1381.2556 -1026.8149
v  -2147.0908 1381.2556 -1026.8149
v  -2094.3960 1371.2556 1071.3749
v  -2158.9009 1371.2556 1071.3749
v  -2094.3960 1371.2556 -1038.6251
v  -2158.9009 1371.2556 -1038.6251
# 12 vertices

vn 0.0000 -1.0000 -0.0000
vn 0.0000 1.0000 -0.0000
vn 0.0000 0.0000 1.0000
vn 1.0000 0.0000 -0.0000
vn 0.0000 0.0000 -1.0000
vn -1.0000 0.0000 -0.0000
vn 0.0000 0.7632 0.6462
vn 0.6462 0.7632 -0.0000
vn 0.0000 0.7632 -0.6462
vn -0.6462 0.7632 -0.0000
# 10 vertex normals

vt 1.0000 0.0000 0.0000
vt 1.0000 1.0000 0.0000
vt 0.0000 1.0000 0.0000
vt 0.0000 0.0000 0.0000
# 4 texture coords

g MurVivarium004
s 2
f 37/13/31 38/14/31 39/15/31 40/16/31 
s 4
f 41/16/32 42/13/32 43/14/32 44/15/32 
s 8
f 37/16/33 40/13/33 45/14/33 46/15/33 
s 16
f 40/16/34 39/13/34 47/14/34 45/15/34 
s 32
f 39/16/35 38/13/35 48/14/35 47/15/35 
s 64
f 38/16/36 37/13/36 46/14/36 48/15/36 
s off
f 46/15/37 45/14/37 42/13/37 41/16/37 
f 45/15/38 47/14/38 43/14/38 42/13/38 
f 47/15/39 48/14/39 44/15/39 43/14/39 
f 48/15/40 46/14/40 41/16/40 44/15/40 
# 10 polygons

#
# object Vivarium_boite
#

v  2150.5894 0.0000 1129.1055
v  2150.5894 0.0000 -1090.1445
v  -2158.9009 0.0000 -1090.1445
v  -2158.9009 0.0000 1129.1055
# 4 vertices

vn 0.0000 1.0000 -0.0000
# 1 vertex normals

vt 0.0000 0.0000 0.0000
# 1 texture coords

g Vivarium_boite
s 1
f 49/17/41 50/17/41 51/17/41 52/17/41 
# 1 polygons

